<svg width="58" height="54" viewBox="0 0 58 54" fill="none" xmlns="http://www.w3.org/2000/svg">
<path d="M51.4264 14.4001L28.3714 35.865C26.0756 38.0025 19.2605 38.9925 17.738 37.575C16.2155 36.1575 17.2547 29.8125 19.5505 27.675L42.6298 6.18755C43.1989 5.60943 43.8879 5.14472 44.6554 4.82139C45.4227 4.49807 46.2526 4.32279 47.0948 4.30628C47.9368 4.28978 48.7739 4.4323 49.5552 4.72527C50.3365 5.01824 51.046 5.45564 51.6408 6.01094C52.2355 6.56624 52.7034 7.22797 53.0159 7.9562C53.3283 8.68446 53.4794 9.46409 53.4593 10.2481C53.4393 11.0321 53.2486 11.8043 52.8994 12.5179C52.5499 13.2315 52.049 13.8718 51.4264 14.4001Z" stroke="#8B9D90" stroke-width="3" stroke-linecap="round" stroke-linejoin="round"/>
<path d="M26.5833 9H14.4999C11.9361 9 9.47755 9.94819 7.66469 11.636C5.85185 13.3239 4.83325 15.613 4.83325 18V40.5C4.83325 42.887 5.85185 45.1762 7.66469 46.8639C9.47755 48.5518 11.9361 49.5 14.4999 49.5H41.0833C46.4241 49.5 48.3333 45.45 48.3333 40.5V29.25" stroke="#8B9D90" stroke-width="3" stroke-linecap="round" stroke-linejoin="round"/>
</svg>
